# xmcd
#
# Track frame offsets:
#	150
#	14144
#	27937
#	43327
#	55078
#	68573
#	81471
#	95980
#	110871
#	124317
#	135616
#	151204
#	165724
#	176295
#	192439
#	203187
#	218775
#	234589
#	246311
#
# Disc length: 3547 seconds
#
# Revision: 0
# Processed by: cddbd v1.5.2PL0 Copyright (c) Steve Scherf et al.
# Submitted via: audiograbber 1.83.01
#
DISCID=1e0dd913
DTITLE=CARLOS ALMENAR OTERO - CON AMOR Y TERNURA
DYEAR=2007
DGENRE=Ballad
TTITLE0=CARLOS ALMENAR OTERO - RECORDANDO
TTITLE1=CARLOS ALMENAR OTERO - A LA LUZ DE LA LUNA
TTITLE2=CARLOS ALMENAR OTERO - A LA ORILLA DEL MAR
TTITLE3=CARLOS ALMENAR OTERO - PIENSALO BIEN MULATA
TTITLE4=CARLOS ALMENAR OTERO - ME ENSEÑASTE A OLVIDAR
TTITLE5=CARLOS ALMENAR OTERO - RESENTIMIENTO
TTITLE6=CARLOS ALMENAR OTERO - CANCION DEL MAR
TTITLE7=CARLOS ALMENAR OTERO - ALMA Y CORAZON
TTITLE8=CARLOS ALMENAR OTERO - YURIMIA
TTITLE9=CARLOS ALMENAR OTERO - MARIA ELENA
TTITLE10=CARLOS ALMENAR OTERO - AMOR, AMOR
TTITLE11=CARLOS ALMENAR OTERO - BESAME MUCHO
TTITLE12=CARLOS ALMENAR OTERO - TABU
TTITLE13=CARLOS ALMENAR OTERO - AQUELLOS OJOS VERDES
TTITLE14=CARLOS ALMENAR OTERO - MI TRISTE AMOR
TTITLE15=CARLOS ALMENAR OTERO - AMOR DE AYER
TTITLE16=CARLOS ALMENAR OTERO - TU AMOR ME HACE FELIZ
TTITLE17=CARLOS ALMENAR OTERO - VAN A MIS BRAZOS
TTITLE18=CARLOS ALMENAR OTERO - EN UN RINCON DEL DESVAN
EXTD=FUNDACION INTERNACIONAL JOSE GUILLERMO CARRILLO
EXTT0=Autor: Carlos Almenar Otero
EXTT1=Autor: A. Faccio
EXTT2=Autores: Manuel Esperón and Ernesto Cotázar
EXTT3=Autor: Agustin Lara
EXTT4=Autor: Luis Cruz
EXTT5=Autor: Luis Cruz
EXTT6=Autores: José Sabré Marroquín and José A. Zorrilla
EXTT7=Autores: Carlos Almenar Otero and Spósito
EXTT8=Autora: Josefina Villegas
EXTT9=Autor: Lorenzo Barcelata
EXTT10=Autor: Gabriel Ruiz
EXTT11=Autora: Consuelo Velásquez
EXTT12=Autor: Ernesto Lecuona
EXTT13=Autor: Nino Meléndez
EXTT14=Autores: Gogol and Carlos Almenar Otero
EXTT15=Autor: Carlos Almenar Otero
EXTT16=Autor: Carlos Almenar Otero
EXTT17=Autor: Carlos Almenar Otero
EXTT18=Autor: Julio Iglesias
PLAYORDER=
